# xmcd CD database file
#
# Track frame offsets:
#	150
#	30476
#	45201
#	60753
#	73509
#	83042
#	104348
#	117788
#	128351
#	143003
#	155616
#	171422
#	190416
#	208479
#	223455
#	235212
#	246293
#	261682
#	274357
#	283306
#	298393
#	315467
#
# Disc length: 4362 seconds
#
# Revision: 0
# Processed by: cddbd v1.5.1PL2 Copyright (c) Steve Scherf et al.
# Submitted via: CDex 1.51
#
DISCID=5b110816
DTITLE=Johnny Cash - Heros And Friends
DYEAR=1900
DGENRE=Country
TTITLE0=Johnny Cash - Heroes And Friends, Vol.1 - 01 - The Good, The Bad, And The Cookie Kid
TTITLE1=Johnny Cash - Heroes And Friends, Vol.1 - 02 - Amazing Grace
TTITLE2=Johnny Cash - Heroes And Friends, Vol.1 - 03 - I Shall Be Free
TTITLE3=Johnny Cash - Heroes And Friends, Vol.1 - 04 - That Silver Haired Daddy Of Mine
TTITLE4=Johnny Cash - Heroes And Friends, Vol.1 - 05 - What's Good For You
TTITLE5=Johnny Cash - Heroes And Friends, Vol.1 - 06 - Forever Young
TTITLE6=Johnny Cash - Heroes And Friends, Vol.1 - 07 - The Death Of Me
TTITLE7=Johnny Cash - Heroes And Friends, Vol.1 - 08 - The Human Condition
TTITLE8=Johnny Cash - Heroes And Friends, Vol.1 - 09 - Battle Of Nashville
TTITLE9=Johnny Cash - Heroes And Friends, Vol.1 - 10 - Get Rhythm
TTITLE10=Johnny Cash - Heroes And Friends, Vol.1 - 11 - Crazy Old Soldier
TTITLE11=Johnny Cash - Heroes And Friends, Vol.1 - 12 - Suffer Little Children
TTITLE12=Johnny Cash - Heroes And Friends, Vol.1 - 13 - Give Me Back My Job
TTITLE13=Johnny Cash - Heroes And Friends, Vol.1 - 14 - The Love That Never Failed
TTITLE14=Johnny Cash - Love Me Tender
TTITLE15=Johnny Cash - Heroes And Friends, Vol.1 - 16 - Didn't It Rain
TTITLE16=Johnny Cash - I Still Miss Someone
TTITLE17=Johnny Cash - Better Class Of Losers
TTITLE18=Johnny Cash - Jealous Loving Heart
TTITLE19=Johnny Cash - Doin' My Time
TTITLE20=Johnny Cash - Woodcarver
TTITLE21=Johnny Cash - Ragged Old Flag
EXTD=
EXTT0=
EXTT1=
EXTT2=
EXTT3=
EXTT4=
EXTT5=
EXTT6=
EXTT7=
EXTT8=
EXTT9=
EXTT10=
EXTT11=
EXTT12=
EXTT13=
EXTT14=
EXTT15=
EXTT16=
EXTT17=
EXTT18=
EXTT19=
EXTT20=
EXTT21=
PLAYORDER=
